<mxfile host="65bd71144e">
    <diagram id="JuKF_tWUWGvBoeWCjmVE" name="第 1 页">
        <mxGraphModel dx="1537" dy="859" grid="0" gridSize="10" guides="1" tooltips="1" connect="1" arrows="1" fold="1" page="0" pageScale="1" pageWidth="827" pageHeight="1169" math="0" shadow="0">
            <root>
                <mxCell id="0"/>
                <mxCell id="1" parent="0"/>
                <mxCell id="7" style="edgeStyle=none;html=1;exitX=1;exitY=0.5;exitDx=0;exitDy=0;fontSize=20;" parent="1" source="3" edge="1">
                    <mxGeometry relative="1" as="geometry">
                        <mxPoint x="800" y="330" as="targetPoint"/>
                    </mxGeometry>
                </mxCell>
                <mxCell id="3" value="Gp" style="rounded=1;whiteSpace=wrap;html=1;fontSize=20;" parent="1" vertex="1">
                    <mxGeometry x="240" y="300" width="120" height="60" as="geometry"/>
                </mxCell>
                <mxCell id="9" style="edgeStyle=none;html=1;exitX=0.5;exitY=1;exitDx=0;exitDy=0;fontSize=20;" parent="1" source="5" edge="1">
                    <mxGeometry relative="1" as="geometry">
                        <mxPoint x="432" y="330" as="targetPoint"/>
                    </mxGeometry>
                </mxCell>
                <mxCell id="5" value="Gf" style="rounded=1;whiteSpace=wrap;html=1;fontSize=20;" parent="1" vertex="1">
                    <mxGeometry x="372" y="180" width="120" height="60" as="geometry"/>
                </mxCell>
                <mxCell id="12" value="" style="endArrow=classic;html=1;fontSize=20;" parent="1" edge="1">
                    <mxGeometry width="50" height="50" relative="1" as="geometry">
                        <mxPoint x="590" y="230" as="sourcePoint"/>
                        <mxPoint x="590" y="330" as="targetPoint"/>
                    </mxGeometry>
                </mxCell>
                <mxCell id="13" value="Noise" style="text;html=1;strokeColor=none;fillColor=none;align=center;verticalAlign=middle;whiteSpace=wrap;rounded=0;fontSize=20;" parent="1" vertex="1">
                    <mxGeometry x="523" y="190" width="131" height="30" as="geometry"/>
                </mxCell>
                <mxCell id="14" value="" style="endArrow=classic;html=1;fontSize=20;entryX=0.5;entryY=0;entryDx=0;entryDy=0;" parent="1" target="5" edge="1">
                    <mxGeometry width="50" height="50" relative="1" as="geometry">
                        <mxPoint x="431.65999999999974" y="80" as="sourcePoint"/>
                        <mxPoint x="430" y="150" as="targetPoint"/>
                    </mxGeometry>
                </mxCell>
                <mxCell id="15" value="T3.DV1" style="text;html=1;strokeColor=none;fillColor=none;align=center;verticalAlign=middle;whiteSpace=wrap;rounded=0;fontSize=20;" parent="1" vertex="1">
                    <mxGeometry x="360" y="40" width="170" height="30" as="geometry"/>
                </mxCell>
                <mxCell id="16" value="" style="endArrow=classic;html=1;fontSize=20;entryX=0;entryY=0.5;entryDx=0;entryDy=0;" parent="1" target="3" edge="1">
                    <mxGeometry width="50" height="50" relative="1" as="geometry">
                        <mxPoint x="90" y="330" as="sourcePoint"/>
                        <mxPoint x="140" y="280" as="targetPoint"/>
                    </mxGeometry>
                </mxCell>
                <mxCell id="17" value="T3.MV1" style="text;html=1;strokeColor=none;fillColor=none;align=center;verticalAlign=middle;whiteSpace=wrap;rounded=0;fontSize=20;" parent="1" vertex="1">
                    <mxGeometry x="15" y="283" width="170" height="30" as="geometry"/>
                </mxCell>
                <mxCell id="18" value="T3.CV1" style="text;html=1;strokeColor=none;fillColor=none;align=center;verticalAlign=middle;whiteSpace=wrap;rounded=0;fontSize=20;" parent="1" vertex="1">
                    <mxGeometry x="700" y="285" width="120" height="30" as="geometry"/>
                </mxCell>
                <mxCell id="19" style="edgeStyle=none;html=1;exitX=1;exitY=0.5;exitDx=0;exitDy=0;fontSize=20;" parent="1" source="20" edge="1">
                    <mxGeometry relative="1" as="geometry">
                        <mxPoint x="780" y="830" as="targetPoint"/>
                    </mxGeometry>
                </mxCell>
                <mxCell id="20" value="Gp" style="rounded=1;whiteSpace=wrap;html=1;fontSize=20;" parent="1" vertex="1">
                    <mxGeometry x="220" y="800" width="120" height="60" as="geometry"/>
                </mxCell>
                <mxCell id="21" style="edgeStyle=none;html=1;exitX=0.5;exitY=1;exitDx=0;exitDy=0;fontSize=20;" parent="1" source="22" edge="1">
                    <mxGeometry relative="1" as="geometry">
                        <mxPoint x="412" y="830" as="targetPoint"/>
                    </mxGeometry>
                </mxCell>
                <mxCell id="22" value="Gf" style="rounded=1;whiteSpace=wrap;html=1;fontSize=20;" parent="1" vertex="1">
                    <mxGeometry x="352" y="680" width="120" height="60" as="geometry"/>
                </mxCell>
                <mxCell id="23" value="" style="endArrow=classic;html=1;fontSize=20;" parent="1" edge="1">
                    <mxGeometry width="50" height="50" relative="1" as="geometry">
                        <mxPoint x="570" y="730" as="sourcePoint"/>
                        <mxPoint x="570" y="830" as="targetPoint"/>
                    </mxGeometry>
                </mxCell>
                <mxCell id="25" value="" style="endArrow=classic;html=1;fontSize=20;entryX=0.5;entryY=0;entryDx=0;entryDy=0;" parent="1" target="22" edge="1">
                    <mxGeometry width="50" height="50" relative="1" as="geometry">
                        <mxPoint x="411.65999999999985" y="580" as="sourcePoint"/>
                        <mxPoint x="410" y="650" as="targetPoint"/>
                    </mxGeometry>
                </mxCell>
                <mxCell id="26" value="T3.DV1" style="text;html=1;strokeColor=none;fillColor=none;align=center;verticalAlign=middle;whiteSpace=wrap;rounded=0;fontSize=20;" parent="1" vertex="1">
                    <mxGeometry x="327" y="543" width="170" height="30" as="geometry"/>
                </mxCell>
                <mxCell id="27" value="" style="endArrow=classic;html=1;fontSize=20;entryX=0;entryY=0.5;entryDx=0;entryDy=0;exitX=1;exitY=0.5;exitDx=0;exitDy=0;" parent="1" source="30" target="20" edge="1">
                    <mxGeometry width="50" height="50" relative="1" as="geometry">
                        <mxPoint x="70" y="830" as="sourcePoint"/>
                        <mxPoint x="120" y="780" as="targetPoint"/>
                    </mxGeometry>
                </mxCell>
                <mxCell id="28" value="T3.MV1" style="text;html=1;strokeColor=none;fillColor=none;align=center;verticalAlign=middle;whiteSpace=wrap;rounded=0;fontSize=20;" parent="1" vertex="1">
                    <mxGeometry x="30" y="780" width="170" height="30" as="geometry"/>
                </mxCell>
                <mxCell id="29" value="T3.CV1" style="text;html=1;strokeColor=none;fillColor=none;align=center;verticalAlign=middle;whiteSpace=wrap;rounded=0;fontSize=20;" parent="1" vertex="1">
                    <mxGeometry x="610" y="780" width="170" height="30" as="geometry"/>
                </mxCell>
                <mxCell id="30" value="Tai-Ji MPC" style="rounded=1;whiteSpace=wrap;html=1;fontSize=20;strokeColor=#FF0000;fontColor=#FF0000;" parent="1" vertex="1">
                    <mxGeometry x="-180" y="800" width="180" height="60" as="geometry"/>
                </mxCell>
                <mxCell id="31" value="" style="endArrow=classic;html=1;fontSize=20;entryX=0.5;entryY=0;entryDx=0;entryDy=0;strokeColor=#FF0000;" parent="1" target="30" edge="1">
                    <mxGeometry width="50" height="50" relative="1" as="geometry">
                        <mxPoint x="410" y="640" as="sourcePoint"/>
                        <mxPoint x="-90.25" y="780" as="targetPoint"/>
                        <Array as="points">
                            <mxPoint x="-90" y="640"/>
                        </Array>
                    </mxGeometry>
                </mxCell>
                <mxCell id="32" style="edgeStyle=none;html=1;fontSize=20;entryX=0.5;entryY=1;entryDx=0;entryDy=0;strokeColor=#FF0000;" parent="1" target="30" edge="1">
                    <mxGeometry relative="1" as="geometry">
                        <mxPoint x="-110.00000000000045" y="990" as="targetPoint"/>
                        <mxPoint x="640" y="830" as="sourcePoint"/>
                        <Array as="points">
                            <mxPoint x="640" y="950"/>
                            <mxPoint x="-90" y="950"/>
                        </Array>
                    </mxGeometry>
                </mxCell>
                <mxCell id="H4Y9jjyBqmmqRxPlN7cT-32" value="" style="endArrow=classic;html=1;fontSize=20;entryX=0;entryY=0.5;entryDx=0;entryDy=0;strokeColor=#FF0000;" parent="1" target="30" edge="1">
                    <mxGeometry width="50" height="50" relative="1" as="geometry">
                        <mxPoint x="-360" y="830" as="sourcePoint"/>
                        <mxPoint x="-199" y="830" as="targetPoint"/>
                    </mxGeometry>
                </mxCell>
                <mxCell id="H4Y9jjyBqmmqRxPlN7cT-33" value="T3.SP1" style="text;html=1;strokeColor=none;fillColor=none;align=center;verticalAlign=middle;whiteSpace=wrap;rounded=0;fontSize=20;" parent="1" vertex="1">
                    <mxGeometry x="-360" y="780" width="170" height="30" as="geometry"/>
                </mxCell>
                <mxCell id="33" value="Noise" style="text;html=1;strokeColor=none;fillColor=none;align=center;verticalAlign=middle;whiteSpace=wrap;rounded=0;fontSize=20;" parent="1" vertex="1">
                    <mxGeometry x="500" y="690" width="131" height="30" as="geometry"/>
                </mxCell>
            </root>
        </mxGraphModel>
    </diagram>
    <diagram id="K3KCWNn4BuNBAyhnkZpp" name="第 2 页">
        <mxGraphModel dx="1738" dy="1811" grid="0" gridSize="10" guides="1" tooltips="1" connect="1" arrows="1" fold="1" page="0" pageScale="1" pageWidth="827" pageHeight="1169" math="0" shadow="0">
            <root>
                <mxCell id="0"/>
                <mxCell id="1" parent="0"/>
                <mxCell id="0pYQeScWZ_cimbsiwMZY-1" style="edgeStyle=none;html=1;exitX=1;exitY=0.5;exitDx=0;exitDy=0;fontSize=20;" parent="1" source="0pYQeScWZ_cimbsiwMZY-2" edge="1">
                    <mxGeometry relative="1" as="geometry">
                        <mxPoint x="800" y="330" as="targetPoint"/>
                    </mxGeometry>
                </mxCell>
                <mxCell id="0pYQeScWZ_cimbsiwMZY-2" value="Gp" style="rounded=1;whiteSpace=wrap;html=1;fontSize=20;" parent="1" vertex="1">
                    <mxGeometry x="240" y="300" width="120" height="60" as="geometry"/>
                </mxCell>
                <mxCell id="0pYQeScWZ_cimbsiwMZY-3" style="edgeStyle=none;html=1;exitX=0.5;exitY=1;exitDx=0;exitDy=0;fontSize=20;" parent="1" source="0pYQeScWZ_cimbsiwMZY-4" edge="1">
                    <mxGeometry relative="1" as="geometry">
                        <mxPoint x="430" y="330" as="targetPoint"/>
                    </mxGeometry>
                </mxCell>
                <mxCell id="0pYQeScWZ_cimbsiwMZY-4" value="Gf" style="rounded=1;whiteSpace=wrap;html=1;fontSize=20;" parent="1" vertex="1">
                    <mxGeometry x="370" y="180" width="120" height="60" as="geometry"/>
                </mxCell>
                <mxCell id="0pYQeScWZ_cimbsiwMZY-5" value="" style="endArrow=classic;html=1;fontSize=20;" parent="1" edge="1">
                    <mxGeometry width="50" height="50" relative="1" as="geometry">
                        <mxPoint x="590" y="230" as="sourcePoint"/>
                        <mxPoint x="590" y="330" as="targetPoint"/>
                    </mxGeometry>
                </mxCell>
                <mxCell id="0pYQeScWZ_cimbsiwMZY-6" value="Noise" style="text;html=1;strokeColor=none;fillColor=none;align=center;verticalAlign=middle;whiteSpace=wrap;rounded=0;fontSize=20;" parent="1" vertex="1">
                    <mxGeometry x="516" y="195" width="150" height="30" as="geometry"/>
                </mxCell>
                <mxCell id="0pYQeScWZ_cimbsiwMZY-7" value="" style="endArrow=classic;html=1;fontSize=20;entryX=0.5;entryY=0;entryDx=0;entryDy=0;" parent="1" target="0pYQeScWZ_cimbsiwMZY-4" edge="1">
                    <mxGeometry width="50" height="50" relative="1" as="geometry">
                        <mxPoint x="430" y="80" as="sourcePoint"/>
                        <mxPoint x="430" y="150" as="targetPoint"/>
                    </mxGeometry>
                </mxCell>
                <mxCell id="0pYQeScWZ_cimbsiwMZY-8" value="T3.DV1" style="text;html=1;strokeColor=none;fillColor=none;align=center;verticalAlign=middle;whiteSpace=wrap;rounded=0;fontSize=20;" parent="1" vertex="1">
                    <mxGeometry x="345" y="40" width="170" height="30" as="geometry"/>
                </mxCell>
                <mxCell id="0pYQeScWZ_cimbsiwMZY-9" value="" style="endArrow=classic;html=1;fontSize=20;entryX=0;entryY=0.5;entryDx=0;entryDy=0;exitX=1;exitY=0.5;exitDx=0;exitDy=0;" parent="1" source="I2vIXZcjRRluHJyw8pbH-1" target="0pYQeScWZ_cimbsiwMZY-2" edge="1">
                    <mxGeometry width="50" height="50" relative="1" as="geometry">
                        <mxPoint x="90" y="330" as="sourcePoint"/>
                        <mxPoint x="140" y="280" as="targetPoint"/>
                    </mxGeometry>
                </mxCell>
                <mxCell id="0pYQeScWZ_cimbsiwMZY-10" value="T3.MV1" style="text;html=1;strokeColor=none;fillColor=none;align=center;verticalAlign=middle;whiteSpace=wrap;rounded=0;fontSize=20;" parent="1" vertex="1">
                    <mxGeometry x="40" y="280" width="170" height="30" as="geometry"/>
                </mxCell>
                <mxCell id="0pYQeScWZ_cimbsiwMZY-11" value="T3.CV1" style="text;html=1;strokeColor=none;fillColor=none;align=center;verticalAlign=middle;whiteSpace=wrap;rounded=0;fontSize=20;" parent="1" vertex="1">
                    <mxGeometry x="657" y="290" width="170" height="30" as="geometry"/>
                </mxCell>
                <mxCell id="0pYQeScWZ_cimbsiwMZY-12" style="edgeStyle=none;html=1;exitX=1;exitY=0.5;exitDx=0;exitDy=0;fontSize=20;" parent="1" source="0pYQeScWZ_cimbsiwMZY-13" edge="1">
                    <mxGeometry relative="1" as="geometry">
                        <mxPoint x="798.5" y="530" as="targetPoint"/>
                    </mxGeometry>
                </mxCell>
                <mxCell id="0pYQeScWZ_cimbsiwMZY-13" value="Gp" style="rounded=1;whiteSpace=wrap;html=1;fontSize=20;" parent="1" vertex="1">
                    <mxGeometry x="238.5" y="500" width="120" height="60" as="geometry"/>
                </mxCell>
                <mxCell id="0pYQeScWZ_cimbsiwMZY-14" value="" style="endArrow=classic;html=1;fontSize=20;entryX=0;entryY=0.5;entryDx=0;entryDy=0;exitX=1;exitY=0.5;exitDx=0;exitDy=0;" parent="1" source="0pYQeScWZ_cimbsiwMZY-17" target="0pYQeScWZ_cimbsiwMZY-13" edge="1">
                    <mxGeometry width="50" height="50" relative="1" as="geometry">
                        <mxPoint x="88.5" y="530" as="sourcePoint"/>
                        <mxPoint x="138.5" y="480" as="targetPoint"/>
                    </mxGeometry>
                </mxCell>
                <mxCell id="0pYQeScWZ_cimbsiwMZY-15" value="T3.PID_MV1" style="text;html=1;strokeColor=none;fillColor=none;align=center;verticalAlign=middle;whiteSpace=wrap;rounded=0;fontSize=20;" parent="1" vertex="1">
                    <mxGeometry x="38.5" y="480" width="170" height="30" as="geometry"/>
                </mxCell>
                <mxCell id="0pYQeScWZ_cimbsiwMZY-16" value="T3.PID_CV1" style="text;html=1;strokeColor=none;fillColor=none;align=center;verticalAlign=middle;whiteSpace=wrap;rounded=0;fontSize=20;" parent="1" vertex="1">
                    <mxGeometry x="655.5" y="490" width="170" height="30" as="geometry"/>
                </mxCell>
                <mxCell id="0pYQeScWZ_cimbsiwMZY-17" value="PID" style="rounded=1;whiteSpace=wrap;html=1;fontSize=20;" parent="1" vertex="1">
                    <mxGeometry x="-110" y="500" width="120" height="60" as="geometry"/>
                </mxCell>
                <mxCell id="mAy08s1osHAPndQy4t3r-1" value="" style="endArrow=classic;html=1;fontSize=20;entryX=0;entryY=0.5;entryDx=0;entryDy=0;" parent="1" target="0pYQeScWZ_cimbsiwMZY-17" edge="1">
                    <mxGeometry width="50" height="50" relative="1" as="geometry">
                        <mxPoint x="-310" y="530" as="sourcePoint"/>
                        <mxPoint x="-121.5" y="530" as="targetPoint"/>
                    </mxGeometry>
                </mxCell>
                <mxCell id="mAy08s1osHAPndQy4t3r-2" value="T3.SP1" style="text;html=1;strokeColor=none;fillColor=none;align=center;verticalAlign=middle;whiteSpace=wrap;rounded=0;fontSize=20;" parent="1" vertex="1">
                    <mxGeometry x="-390" y="480" width="170" height="30" as="geometry"/>
                </mxCell>
                <mxCell id="mAy08s1osHAPndQy4t3r-3" value="" style="endArrow=classic;html=1;fontSize=20;entryX=0.5;entryY=1;entryDx=0;entryDy=0;" parent="1" target="0pYQeScWZ_cimbsiwMZY-17" edge="1">
                    <mxGeometry width="50" height="50" relative="1" as="geometry">
                        <mxPoint x="640" y="530" as="sourcePoint"/>
                        <mxPoint x="-170" y="530" as="targetPoint"/>
                        <Array as="points">
                            <mxPoint x="640" y="620"/>
                            <mxPoint x="-50" y="620"/>
                        </Array>
                    </mxGeometry>
                </mxCell>
                <mxCell id="mAy08s1osHAPndQy4t3r-5" value="" style="endArrow=classic;html=1;fontSize=20;jumpStyle=arc;" parent="1" edge="1">
                    <mxGeometry width="50" height="50" relative="1" as="geometry">
                        <mxPoint x="430" y="280" as="sourcePoint"/>
                        <mxPoint x="430" y="530" as="targetPoint"/>
                        <Array as="points">
                            <mxPoint x="460" y="280"/>
                            <mxPoint x="460" y="440"/>
                            <mxPoint x="430" y="440"/>
                        </Array>
                    </mxGeometry>
                </mxCell>
                <mxCell id="mAy08s1osHAPndQy4t3r-6" value="" style="endArrow=classic;html=1;fontSize=20;jumpStyle=arc;" parent="1" edge="1">
                    <mxGeometry width="50" height="50" relative="1" as="geometry">
                        <mxPoint x="590" y="280" as="sourcePoint"/>
                        <mxPoint x="590" y="530" as="targetPoint"/>
                        <Array as="points">
                            <mxPoint x="620" y="280"/>
                            <mxPoint x="620" y="440"/>
                            <mxPoint x="590" y="440"/>
                        </Array>
                    </mxGeometry>
                </mxCell>
                <mxCell id="I2vIXZcjRRluHJyw8pbH-1" value="Tai-Ji MPC" style="rounded=1;whiteSpace=wrap;html=1;fontSize=20;strokeColor=#FF0000;fontColor=#FF0000;" parent="1" vertex="1">
                    <mxGeometry x="-140" y="300" width="180" height="60" as="geometry"/>
                </mxCell>
                <mxCell id="I2vIXZcjRRluHJyw8pbH-2" value="" style="endArrow=classic;html=1;fontSize=20;entryX=0.5;entryY=0;entryDx=0;entryDy=0;strokeColor=#FF0000;" parent="1" target="I2vIXZcjRRluHJyw8pbH-1" edge="1">
                    <mxGeometry width="50" height="50" relative="1" as="geometry">
                        <mxPoint x="430" y="140" as="sourcePoint"/>
                        <mxPoint x="-48.25" y="280" as="targetPoint"/>
                        <Array as="points">
                            <mxPoint x="-50" y="140"/>
                        </Array>
                    </mxGeometry>
                </mxCell>
                <mxCell id="I2vIXZcjRRluHJyw8pbH-3" style="edgeStyle=none;html=1;fontSize=20;entryX=0.5;entryY=1;entryDx=0;entryDy=0;strokeColor=#FF0000;" parent="1" target="I2vIXZcjRRluHJyw8pbH-1" edge="1">
                    <mxGeometry relative="1" as="geometry">
                        <mxPoint x="-68.00000000000045" y="490" as="targetPoint"/>
                        <mxPoint x="682" y="330" as="sourcePoint"/>
                        <Array as="points">
                            <mxPoint x="682" y="420"/>
                            <mxPoint x="-50" y="420"/>
                        </Array>
                    </mxGeometry>
                </mxCell>
                <mxCell id="I2vIXZcjRRluHJyw8pbH-4" value="" style="endArrow=classic;html=1;fontSize=20;entryX=0;entryY=0.5;entryDx=0;entryDy=0;strokeColor=#FF0000;" parent="1" target="I2vIXZcjRRluHJyw8pbH-1" edge="1">
                    <mxGeometry width="50" height="50" relative="1" as="geometry">
                        <mxPoint x="-190" y="530" as="sourcePoint"/>
                        <mxPoint x="-157" y="330" as="targetPoint"/>
                        <Array as="points">
                            <mxPoint x="-190" y="330"/>
                        </Array>
                    </mxGeometry>
                </mxCell>
                <mxCell id="I2vIXZcjRRluHJyw8pbH-5" style="edgeStyle=none;html=1;exitX=1;exitY=0.5;exitDx=0;exitDy=0;fontSize=20;" parent="1" source="I2vIXZcjRRluHJyw8pbH-6" edge="1">
                    <mxGeometry relative="1" as="geometry">
                        <mxPoint x="810" y="-370" as="targetPoint"/>
                    </mxGeometry>
                </mxCell>
                <mxCell id="I2vIXZcjRRluHJyw8pbH-6" value="Gp" style="rounded=1;whiteSpace=wrap;html=1;fontSize=20;" parent="1" vertex="1">
                    <mxGeometry x="250" y="-400" width="120" height="60" as="geometry"/>
                </mxCell>
                <mxCell id="I2vIXZcjRRluHJyw8pbH-7" style="edgeStyle=none;html=1;exitX=0.5;exitY=1;exitDx=0;exitDy=0;fontSize=20;" parent="1" source="I2vIXZcjRRluHJyw8pbH-8" edge="1">
                    <mxGeometry relative="1" as="geometry">
                        <mxPoint x="440" y="-370" as="targetPoint"/>
                    </mxGeometry>
                </mxCell>
                <mxCell id="I2vIXZcjRRluHJyw8pbH-8" value="Gf" style="rounded=1;whiteSpace=wrap;html=1;fontSize=20;" parent="1" vertex="1">
                    <mxGeometry x="380" y="-520" width="120" height="60" as="geometry"/>
                </mxCell>
                <mxCell id="I2vIXZcjRRluHJyw8pbH-9" value="" style="endArrow=classic;html=1;fontSize=20;" parent="1" edge="1">
                    <mxGeometry width="50" height="50" relative="1" as="geometry">
                        <mxPoint x="600" y="-470" as="sourcePoint"/>
                        <mxPoint x="600" y="-370" as="targetPoint"/>
                    </mxGeometry>
                </mxCell>
                <mxCell id="I2vIXZcjRRluHJyw8pbH-10" value="Noise" style="text;html=1;strokeColor=none;fillColor=none;align=center;verticalAlign=middle;whiteSpace=wrap;rounded=0;fontSize=20;" parent="1" vertex="1">
                    <mxGeometry x="530" y="-510" width="140" height="30" as="geometry"/>
                </mxCell>
                <mxCell id="I2vIXZcjRRluHJyw8pbH-11" value="" style="endArrow=classic;html=1;fontSize=20;entryX=0.5;entryY=0;entryDx=0;entryDy=0;" parent="1" target="I2vIXZcjRRluHJyw8pbH-8" edge="1">
                    <mxGeometry width="50" height="50" relative="1" as="geometry">
                        <mxPoint x="440" y="-620" as="sourcePoint"/>
                        <mxPoint x="440" y="-550" as="targetPoint"/>
                    </mxGeometry>
                </mxCell>
                <mxCell id="I2vIXZcjRRluHJyw8pbH-12" value="T3.DV1" style="text;html=1;strokeColor=none;fillColor=none;align=center;verticalAlign=middle;whiteSpace=wrap;rounded=0;fontSize=20;" parent="1" vertex="1">
                    <mxGeometry x="355" y="-660" width="170" height="30" as="geometry"/>
                </mxCell>
                <mxCell id="I2vIXZcjRRluHJyw8pbH-13" value="" style="endArrow=classic;html=1;fontSize=20;entryX=0;entryY=0.5;entryDx=0;entryDy=0;exitX=1;exitY=0.5;exitDx=0;exitDy=0;" parent="1" target="I2vIXZcjRRluHJyw8pbH-6" edge="1">
                    <mxGeometry width="50" height="50" relative="1" as="geometry">
                        <mxPoint x="50" y="-370" as="sourcePoint"/>
                        <mxPoint x="150" y="-420" as="targetPoint"/>
                    </mxGeometry>
                </mxCell>
                <mxCell id="I2vIXZcjRRluHJyw8pbH-14" value="T3.MV1" style="text;html=1;strokeColor=none;fillColor=none;align=center;verticalAlign=middle;whiteSpace=wrap;rounded=0;fontSize=20;" parent="1" vertex="1">
                    <mxGeometry x="50" y="-420" width="170" height="30" as="geometry"/>
                </mxCell>
                <mxCell id="I2vIXZcjRRluHJyw8pbH-15" value="T3.CV1" style="text;html=1;strokeColor=none;fillColor=none;align=center;verticalAlign=middle;whiteSpace=wrap;rounded=0;fontSize=20;" parent="1" vertex="1">
                    <mxGeometry x="666" y="-420" width="170" height="30" as="geometry"/>
                </mxCell>
                <mxCell id="I2vIXZcjRRluHJyw8pbH-16" style="edgeStyle=none;html=1;exitX=1;exitY=0.5;exitDx=0;exitDy=0;fontSize=20;" parent="1" source="I2vIXZcjRRluHJyw8pbH-17" edge="1">
                    <mxGeometry relative="1" as="geometry">
                        <mxPoint x="808.5" y="-170" as="targetPoint"/>
                    </mxGeometry>
                </mxCell>
                <mxCell id="I2vIXZcjRRluHJyw8pbH-17" value="Gp" style="rounded=1;whiteSpace=wrap;html=1;fontSize=20;" parent="1" vertex="1">
                    <mxGeometry x="248.5" y="-200" width="120" height="60" as="geometry"/>
                </mxCell>
                <mxCell id="I2vIXZcjRRluHJyw8pbH-18" value="" style="endArrow=classic;html=1;fontSize=20;entryX=0;entryY=0.5;entryDx=0;entryDy=0;exitX=1;exitY=0.5;exitDx=0;exitDy=0;" parent="1" source="I2vIXZcjRRluHJyw8pbH-21" target="I2vIXZcjRRluHJyw8pbH-17" edge="1">
                    <mxGeometry width="50" height="50" relative="1" as="geometry">
                        <mxPoint x="98.5" y="-170" as="sourcePoint"/>
                        <mxPoint x="148.5" y="-220" as="targetPoint"/>
                    </mxGeometry>
                </mxCell>
                <mxCell id="I2vIXZcjRRluHJyw8pbH-19" value="T3.PID_MV1" style="text;html=1;strokeColor=none;fillColor=none;align=center;verticalAlign=middle;whiteSpace=wrap;rounded=0;fontSize=20;" parent="1" vertex="1">
                    <mxGeometry x="48.5" y="-220" width="170" height="30" as="geometry"/>
                </mxCell>
                <mxCell id="I2vIXZcjRRluHJyw8pbH-20" value="T3.PID_CV1" style="text;html=1;strokeColor=none;fillColor=none;align=center;verticalAlign=middle;whiteSpace=wrap;rounded=0;fontSize=20;" parent="1" vertex="1">
                    <mxGeometry x="666" y="-220" width="170" height="30" as="geometry"/>
                </mxCell>
                <mxCell id="I2vIXZcjRRluHJyw8pbH-21" value="PID" style="rounded=1;whiteSpace=wrap;html=1;fontSize=20;" parent="1" vertex="1">
                    <mxGeometry x="-100" y="-200" width="120" height="60" as="geometry"/>
                </mxCell>
                <mxCell id="I2vIXZcjRRluHJyw8pbH-22" value="" style="endArrow=classic;html=1;fontSize=20;entryX=0;entryY=0.5;entryDx=0;entryDy=0;" parent="1" target="I2vIXZcjRRluHJyw8pbH-21" edge="1">
                    <mxGeometry width="50" height="50" relative="1" as="geometry">
                        <mxPoint x="-300" y="-170" as="sourcePoint"/>
                        <mxPoint x="-111.5" y="-170" as="targetPoint"/>
                    </mxGeometry>
                </mxCell>
                <mxCell id="I2vIXZcjRRluHJyw8pbH-23" value="T3.SP1" style="text;html=1;strokeColor=none;fillColor=none;align=center;verticalAlign=middle;whiteSpace=wrap;rounded=0;fontSize=20;" parent="1" vertex="1">
                    <mxGeometry x="-300" y="-220" width="170" height="30" as="geometry"/>
                </mxCell>
                <mxCell id="I2vIXZcjRRluHJyw8pbH-24" value="" style="endArrow=classic;html=1;fontSize=20;entryX=0.5;entryY=1;entryDx=0;entryDy=0;" parent="1" target="I2vIXZcjRRluHJyw8pbH-21" edge="1">
                    <mxGeometry width="50" height="50" relative="1" as="geometry">
                        <mxPoint x="650" y="-170" as="sourcePoint"/>
                        <mxPoint x="-160" y="-170" as="targetPoint"/>
                        <Array as="points">
                            <mxPoint x="650" y="-80"/>
                            <mxPoint x="-40" y="-80"/>
                        </Array>
                    </mxGeometry>
                </mxCell>
                <mxCell id="I2vIXZcjRRluHJyw8pbH-25" value="" style="endArrow=classic;html=1;fontSize=20;jumpStyle=arc;" parent="1" edge="1">
                    <mxGeometry width="50" height="50" relative="1" as="geometry">
                        <mxPoint x="440" y="-420" as="sourcePoint"/>
                        <mxPoint x="440" y="-170" as="targetPoint"/>
                        <Array as="points">
                            <mxPoint x="470" y="-420"/>
                            <mxPoint x="470" y="-260"/>
                            <mxPoint x="440" y="-260"/>
                        </Array>
                    </mxGeometry>
                </mxCell>
                <mxCell id="I2vIXZcjRRluHJyw8pbH-26" value="" style="endArrow=classic;html=1;fontSize=20;jumpStyle=arc;" parent="1" edge="1">
                    <mxGeometry width="50" height="50" relative="1" as="geometry">
                        <mxPoint x="600" y="-420" as="sourcePoint"/>
                        <mxPoint x="600" y="-170" as="targetPoint"/>
                        <Array as="points">
                            <mxPoint x="630" y="-420"/>
                            <mxPoint x="630" y="-260"/>
                            <mxPoint x="600" y="-260"/>
                        </Array>
                    </mxGeometry>
                </mxCell>
            </root>
        </mxGraphModel>
    </diagram>
    <diagram id="5ghGk9G49CFb3fesmY9Z" name="第 3 页">
        <mxGraphModel dx="1537" dy="2059" grid="0" gridSize="10" guides="1" tooltips="1" connect="1" arrows="1" fold="1" page="0" pageScale="1" pageWidth="827" pageHeight="1169" math="0" shadow="0">
            <root>
                <mxCell id="0"/>
                <mxCell id="1" parent="0"/>
                <mxCell id="lkmCjxghDWVWR_M6tpL2-1" style="edgeStyle=none;html=1;exitX=1;exitY=0.5;exitDx=0;exitDy=0;fontSize=20;" parent="1" source="lkmCjxghDWVWR_M6tpL2-2" edge="1">
                    <mxGeometry relative="1" as="geometry">
                        <mxPoint x="770" y="-790" as="targetPoint"/>
                    </mxGeometry>
                </mxCell>
                <mxCell id="lkmCjxghDWVWR_M6tpL2-2" value="Gp" style="rounded=1;whiteSpace=wrap;html=1;fontSize=20;" parent="1" vertex="1">
                    <mxGeometry x="210" y="-820" width="120" height="60" as="geometry"/>
                </mxCell>
                <mxCell id="lkmCjxghDWVWR_M6tpL2-3" style="edgeStyle=none;html=1;exitX=0.5;exitY=1;exitDx=0;exitDy=0;fontSize=20;" parent="1" source="lkmCjxghDWVWR_M6tpL2-4" edge="1">
                    <mxGeometry relative="1" as="geometry">
                        <mxPoint x="400" y="-790" as="targetPoint"/>
                    </mxGeometry>
                </mxCell>
                <mxCell id="lkmCjxghDWVWR_M6tpL2-4" value="Gf" style="rounded=1;whiteSpace=wrap;html=1;fontSize=20;" parent="1" vertex="1">
                    <mxGeometry x="340" y="-940" width="120" height="60" as="geometry"/>
                </mxCell>
                <mxCell id="lkmCjxghDWVWR_M6tpL2-5" value="" style="endArrow=classic;html=1;fontSize=20;" parent="1" edge="1">
                    <mxGeometry width="50" height="50" relative="1" as="geometry">
                        <mxPoint x="560" y="-890" as="sourcePoint"/>
                        <mxPoint x="560" y="-790" as="targetPoint"/>
                    </mxGeometry>
                </mxCell>
                <mxCell id="lkmCjxghDWVWR_M6tpL2-6" value="Noise" style="text;html=1;strokeColor=none;fillColor=none;align=center;verticalAlign=middle;whiteSpace=wrap;rounded=0;fontSize=20;" parent="1" vertex="1">
                    <mxGeometry x="490" y="-930" width="140" height="30" as="geometry"/>
                </mxCell>
                <mxCell id="lkmCjxghDWVWR_M6tpL2-7" value="" style="endArrow=classic;html=1;fontSize=20;entryX=0.5;entryY=0;entryDx=0;entryDy=0;" parent="1" target="lkmCjxghDWVWR_M6tpL2-4" edge="1">
                    <mxGeometry width="50" height="50" relative="1" as="geometry">
                        <mxPoint x="400" y="-1040" as="sourcePoint"/>
                        <mxPoint x="400" y="-970" as="targetPoint"/>
                    </mxGeometry>
                </mxCell>
                <mxCell id="lkmCjxghDWVWR_M6tpL2-8" value="T3.DV1" style="text;html=1;strokeColor=none;fillColor=none;align=center;verticalAlign=middle;whiteSpace=wrap;rounded=0;fontSize=20;" parent="1" vertex="1">
                    <mxGeometry x="315" y="-1080" width="170" height="30" as="geometry"/>
                </mxCell>
                <mxCell id="lkmCjxghDWVWR_M6tpL2-9" value="" style="endArrow=classic;html=1;fontSize=20;entryX=0;entryY=0.5;entryDx=0;entryDy=0;exitX=1;exitY=0.5;exitDx=0;exitDy=0;" parent="1" target="lkmCjxghDWVWR_M6tpL2-2" edge="1">
                    <mxGeometry width="50" height="50" relative="1" as="geometry">
                        <mxPoint x="10" y="-790" as="sourcePoint"/>
                        <mxPoint x="110" y="-840" as="targetPoint"/>
                    </mxGeometry>
                </mxCell>
                <mxCell id="lkmCjxghDWVWR_M6tpL2-10" value="T3.MV1" style="text;html=1;strokeColor=none;fillColor=none;align=center;verticalAlign=middle;whiteSpace=wrap;rounded=0;fontSize=20;" parent="1" vertex="1">
                    <mxGeometry x="10" y="-840" width="170" height="30" as="geometry"/>
                </mxCell>
                <mxCell id="lkmCjxghDWVWR_M6tpL2-11" value="T3.CV1" style="text;html=1;strokeColor=none;fillColor=none;align=center;verticalAlign=middle;whiteSpace=wrap;rounded=0;fontSize=20;" parent="1" vertex="1">
                    <mxGeometry x="626" y="-840" width="170" height="30" as="geometry"/>
                </mxCell>
                <mxCell id="lkmCjxghDWVWR_M6tpL2-12" style="edgeStyle=none;html=1;exitX=1;exitY=0.5;exitDx=0;exitDy=0;fontSize=20;" parent="1" source="lkmCjxghDWVWR_M6tpL2-13" edge="1">
                    <mxGeometry relative="1" as="geometry">
                        <mxPoint x="768.5" y="-590" as="targetPoint"/>
                    </mxGeometry>
                </mxCell>
                <mxCell id="lkmCjxghDWVWR_M6tpL2-13" value="Gp" style="rounded=1;whiteSpace=wrap;html=1;fontSize=20;" parent="1" vertex="1">
                    <mxGeometry x="208.5" y="-620" width="120" height="60" as="geometry"/>
                </mxCell>
                <mxCell id="lkmCjxghDWVWR_M6tpL2-14" value="" style="endArrow=classic;html=1;fontSize=20;entryX=0;entryY=0.5;entryDx=0;entryDy=0;exitX=1;exitY=0.5;exitDx=0;exitDy=0;" parent="1" source="lkmCjxghDWVWR_M6tpL2-17" target="lkmCjxghDWVWR_M6tpL2-13" edge="1">
                    <mxGeometry width="50" height="50" relative="1" as="geometry">
                        <mxPoint x="58.5" y="-590" as="sourcePoint"/>
                        <mxPoint x="108.5" y="-640" as="targetPoint"/>
                    </mxGeometry>
                </mxCell>
                <mxCell id="lkmCjxghDWVWR_M6tpL2-15" value="T3.PID_MV1" style="text;html=1;strokeColor=none;fillColor=none;align=center;verticalAlign=middle;whiteSpace=wrap;rounded=0;fontSize=20;" parent="1" vertex="1">
                    <mxGeometry x="8.5" y="-640" width="170" height="30" as="geometry"/>
                </mxCell>
                <mxCell id="lkmCjxghDWVWR_M6tpL2-16" value="T3.PID_CV1" style="text;html=1;strokeColor=none;fillColor=none;align=center;verticalAlign=middle;whiteSpace=wrap;rounded=0;fontSize=20;" parent="1" vertex="1">
                    <mxGeometry x="626" y="-640" width="170" height="30" as="geometry"/>
                </mxCell>
                <mxCell id="lkmCjxghDWVWR_M6tpL2-17" value="PID" style="rounded=1;whiteSpace=wrap;html=1;fontSize=20;" parent="1" vertex="1">
                    <mxGeometry x="-140" y="-620" width="120" height="60" as="geometry"/>
                </mxCell>
                <mxCell id="lkmCjxghDWVWR_M6tpL2-18" value="" style="endArrow=classic;html=1;fontSize=20;entryX=0;entryY=0.5;entryDx=0;entryDy=0;" parent="1" target="lkmCjxghDWVWR_M6tpL2-17" edge="1">
                    <mxGeometry width="50" height="50" relative="1" as="geometry">
                        <mxPoint x="-340" y="-590" as="sourcePoint"/>
                        <mxPoint x="-151.5" y="-590" as="targetPoint"/>
                    </mxGeometry>
                </mxCell>
                <mxCell id="lkmCjxghDWVWR_M6tpL2-19" value="T3.SP1" style="text;html=1;strokeColor=none;fillColor=none;align=center;verticalAlign=middle;whiteSpace=wrap;rounded=0;fontSize=20;" parent="1" vertex="1">
                    <mxGeometry x="-340" y="-640" width="170" height="30" as="geometry"/>
                </mxCell>
                <mxCell id="lkmCjxghDWVWR_M6tpL2-20" value="" style="endArrow=classic;html=1;fontSize=20;entryX=0.5;entryY=1;entryDx=0;entryDy=0;" parent="1" target="lkmCjxghDWVWR_M6tpL2-17" edge="1">
                    <mxGeometry width="50" height="50" relative="1" as="geometry">
                        <mxPoint x="610" y="-590" as="sourcePoint"/>
                        <mxPoint x="-200" y="-590" as="targetPoint"/>
                        <Array as="points">
                            <mxPoint x="610" y="-500"/>
                            <mxPoint x="-80" y="-500"/>
                        </Array>
                    </mxGeometry>
                </mxCell>
                <mxCell id="lkmCjxghDWVWR_M6tpL2-21" value="" style="endArrow=classic;html=1;fontSize=20;jumpStyle=arc;" parent="1" edge="1">
                    <mxGeometry width="50" height="50" relative="1" as="geometry">
                        <mxPoint x="400" y="-840" as="sourcePoint"/>
                        <mxPoint x="400" y="-590" as="targetPoint"/>
                        <Array as="points">
                            <mxPoint x="430" y="-840"/>
                            <mxPoint x="430" y="-710"/>
                            <mxPoint x="400" y="-710"/>
                        </Array>
                    </mxGeometry>
                </mxCell>
                <mxCell id="lkmCjxghDWVWR_M6tpL2-22" value="" style="endArrow=classic;html=1;fontSize=20;jumpStyle=arc;" parent="1" edge="1">
                    <mxGeometry width="50" height="50" relative="1" as="geometry">
                        <mxPoint x="560" y="-840" as="sourcePoint"/>
                        <mxPoint x="560" y="-590" as="targetPoint"/>
                        <Array as="points">
                            <mxPoint x="590" y="-840"/>
                            <mxPoint x="590" y="-710"/>
                            <mxPoint x="560" y="-710"/>
                        </Array>
                    </mxGeometry>
                </mxCell>
                <mxCell id="lkmCjxghDWVWR_M6tpL2-23" style="edgeStyle=none;html=1;exitX=1;exitY=0.5;exitDx=0;exitDy=0;fontSize=20;" parent="1" source="lkmCjxghDWVWR_M6tpL2-24" edge="1">
                    <mxGeometry relative="1" as="geometry">
                        <mxPoint x="770" y="-360" as="targetPoint"/>
                    </mxGeometry>
                </mxCell>
                <mxCell id="lkmCjxghDWVWR_M6tpL2-24" value="Gp" style="rounded=1;whiteSpace=wrap;html=1;fontSize=20;" parent="1" vertex="1">
                    <mxGeometry x="210" y="-390" width="120" height="60" as="geometry"/>
                </mxCell>
                <mxCell id="lkmCjxghDWVWR_M6tpL2-31" value="" style="endArrow=classic;html=1;fontSize=20;entryX=0;entryY=0.5;entryDx=0;entryDy=0;exitX=1;exitY=0.5;exitDx=0;exitDy=0;" parent="1" target="lkmCjxghDWVWR_M6tpL2-24" edge="1">
                    <mxGeometry width="50" height="50" relative="1" as="geometry">
                        <mxPoint x="10" y="-360" as="sourcePoint"/>
                        <mxPoint x="110" y="-410" as="targetPoint"/>
                    </mxGeometry>
                </mxCell>
                <mxCell id="lkmCjxghDWVWR_M6tpL2-32" value="T3.OPEN_MV1" style="text;html=1;strokeColor=none;fillColor=none;align=center;verticalAlign=middle;whiteSpace=wrap;rounded=0;fontSize=20;" parent="1" vertex="1">
                    <mxGeometry x="10" y="-410" width="170" height="30" as="geometry"/>
                </mxCell>
                <mxCell id="lkmCjxghDWVWR_M6tpL2-33" value="T3.OPEN_CV1" style="text;html=1;strokeColor=none;fillColor=none;align=center;verticalAlign=middle;whiteSpace=wrap;rounded=0;fontSize=20;" parent="1" vertex="1">
                    <mxGeometry x="626" y="-410" width="170" height="30" as="geometry"/>
                </mxCell>
                <mxCell id="lkmCjxghDWVWR_M6tpL2-34" value="" style="endArrow=classic;html=1;fontSize=20;jumpStyle=arc;" parent="1" edge="1">
                    <mxGeometry width="50" height="50" relative="1" as="geometry">
                        <mxPoint x="400" y="-640" as="sourcePoint"/>
                        <mxPoint x="400" y="-360" as="targetPoint"/>
                        <Array as="points">
                            <mxPoint x="430" y="-640"/>
                            <mxPoint x="430" y="-540"/>
                            <mxPoint x="400" y="-540"/>
                        </Array>
                    </mxGeometry>
                </mxCell>
                <mxCell id="lkmCjxghDWVWR_M6tpL2-35" value="" style="endArrow=classic;html=1;fontSize=20;jumpStyle=arc;" parent="1" edge="1">
                    <mxGeometry width="50" height="50" relative="1" as="geometry">
                        <mxPoint x="560" y="-640" as="sourcePoint"/>
                        <mxPoint x="560" y="-360" as="targetPoint"/>
                        <Array as="points">
                            <mxPoint x="590" y="-640"/>
                            <mxPoint x="590" y="-540"/>
                            <mxPoint x="560" y="-540"/>
                        </Array>
                    </mxGeometry>
                </mxCell>
            </root>
        </mxGraphModel>
    </diagram>
    <diagram id="zvK-KfUQ5OHgpNbNtaW9" name="第 4 页">
        <mxGraphModel dx="1662" dy="716" grid="1" gridSize="5" guides="1" tooltips="1" connect="1" arrows="1" fold="1" page="0" pageScale="1" pageWidth="827" pageHeight="1169" math="0" shadow="0">
            <root>
                <mxCell id="0"/>
                <mxCell id="1" parent="0"/>
                <mxCell id="pYcxB9u1p4FyGym-PqK4-1" style="edgeStyle=none;html=1;exitX=1;exitY=0.5;exitDx=0;exitDy=0;fontSize=20;" parent="1" source="pYcxB9u1p4FyGym-PqK4-2" edge="1">
                    <mxGeometry relative="1" as="geometry">
                        <mxPoint x="780" y="330" as="targetPoint"/>
                    </mxGeometry>
                </mxCell>
                <mxCell id="pYcxB9u1p4FyGym-PqK4-2" value="G11" style="rounded=1;whiteSpace=wrap;html=1;fontSize=20;" parent="1" vertex="1">
                    <mxGeometry x="240" y="300" width="120" height="60" as="geometry"/>
                </mxCell>
                <mxCell id="pYcxB9u1p4FyGym-PqK4-26" style="edgeStyle=none;html=1;exitX=1;exitY=0.5;exitDx=0;exitDy=0;" parent="1" source="pYcxB9u1p4FyGym-PqK4-4" edge="1">
                    <mxGeometry relative="1" as="geometry">
                        <mxPoint x="520" y="419.5882352941178" as="targetPoint"/>
                    </mxGeometry>
                </mxCell>
                <mxCell id="pYcxB9u1p4FyGym-PqK4-40" style="edgeStyle=none;html=1;entryX=0;entryY=0.5;entryDx=0;entryDy=0;jumpStyle=arc;" parent="1" target="pYcxB9u1p4FyGym-PqK4-4" edge="1">
                    <mxGeometry relative="1" as="geometry">
                        <mxPoint x="-10" y="420" as="sourcePoint"/>
                    </mxGeometry>
                </mxCell>
                <mxCell id="pYcxB9u1p4FyGym-PqK4-4" value="G12" style="rounded=1;whiteSpace=wrap;html=1;fontSize=20;" parent="1" vertex="1">
                    <mxGeometry x="240" y="390" width="120" height="60" as="geometry"/>
                </mxCell>
                <mxCell id="pYcxB9u1p4FyGym-PqK4-5" value="" style="endArrow=classic;html=1;fontSize=20;" parent="1" edge="1">
                    <mxGeometry width="50" height="50" relative="1" as="geometry">
                        <mxPoint x="590" y="230" as="sourcePoint"/>
                        <mxPoint x="590" y="330" as="targetPoint"/>
                    </mxGeometry>
                </mxCell>
                <mxCell id="pYcxB9u1p4FyGym-PqK4-6" value="Noise1" style="text;html=1;strokeColor=none;fillColor=none;align=center;verticalAlign=middle;whiteSpace=wrap;rounded=0;fontSize=20;" parent="1" vertex="1">
                    <mxGeometry x="523" y="190" width="131" height="30" as="geometry"/>
                </mxCell>
                <mxCell id="pYcxB9u1p4FyGym-PqK4-8" value="" style="endArrow=classic;html=1;fontSize=20;entryX=0;entryY=0.5;entryDx=0;entryDy=0;jumpStyle=arc;" parent="1" target="pYcxB9u1p4FyGym-PqK4-2" edge="1">
                    <mxGeometry width="50" height="50" relative="1" as="geometry">
                        <mxPoint x="-10" y="330" as="sourcePoint"/>
                        <mxPoint x="140" y="280" as="targetPoint"/>
                    </mxGeometry>
                </mxCell>
                <mxCell id="pYcxB9u1p4FyGym-PqK4-9" value="T3.MV1" style="text;html=1;strokeColor=none;fillColor=none;align=center;verticalAlign=middle;whiteSpace=wrap;rounded=0;fontSize=20;" parent="1" vertex="1">
                    <mxGeometry x="-99" y="285" width="170" height="30" as="geometry"/>
                </mxCell>
                <mxCell id="pYcxB9u1p4FyGym-PqK4-10" value="T3.CV1" style="text;html=1;strokeColor=none;fillColor=none;align=center;verticalAlign=middle;whiteSpace=wrap;rounded=0;fontSize=20;" parent="1" vertex="1">
                    <mxGeometry x="700" y="285" width="120" height="30" as="geometry"/>
                </mxCell>
                <mxCell id="pYcxB9u1p4FyGym-PqK4-19" style="edgeStyle=none;html=1;exitX=1;exitY=0.5;exitDx=0;exitDy=0;" parent="1" source="pYcxB9u1p4FyGym-PqK4-11" edge="1">
                    <mxGeometry relative="1" as="geometry">
                        <mxPoint x="520" y="330" as="targetPoint"/>
                        <Array as="points">
                            <mxPoint x="520" y="510"/>
                        </Array>
                    </mxGeometry>
                </mxCell>
                <mxCell id="pYcxB9u1p4FyGym-PqK4-43" style="edgeStyle=none;html=1;entryX=0;entryY=0.5;entryDx=0;entryDy=0;jumpStyle=arc;" parent="1" target="pYcxB9u1p4FyGym-PqK4-11" edge="1">
                    <mxGeometry relative="1" as="geometry">
                        <mxPoint x="-10" y="510" as="sourcePoint"/>
                    </mxGeometry>
                </mxCell>
                <mxCell id="pYcxB9u1p4FyGym-PqK4-11" value="G13" style="rounded=1;whiteSpace=wrap;html=1;fontSize=20;" parent="1" vertex="1">
                    <mxGeometry x="240" y="480" width="120" height="60" as="geometry"/>
                </mxCell>
                <mxCell id="pYcxB9u1p4FyGym-PqK4-20" style="edgeStyle=none;html=1;exitX=1;exitY=0.5;exitDx=0;exitDy=0;" parent="1" source="pYcxB9u1p4FyGym-PqK4-12" edge="1">
                    <mxGeometry relative="1" as="geometry">
                        <mxPoint x="780" y="599.5882352941178" as="targetPoint"/>
                    </mxGeometry>
                </mxCell>
                <mxCell id="pYcxB9u1p4FyGym-PqK4-37" style="edgeStyle=none;html=1;exitX=0;exitY=0.5;exitDx=0;exitDy=0;entryX=0;entryY=0.5;entryDx=0;entryDy=0;jumpStyle=arc;" parent="1" target="pYcxB9u1p4FyGym-PqK4-12" edge="1">
                    <mxGeometry relative="1" as="geometry">
                        <mxPoint x="160" y="330" as="sourcePoint"/>
                        <Array as="points">
                            <mxPoint x="160" y="600"/>
                        </Array>
                    </mxGeometry>
                </mxCell>
                <mxCell id="pYcxB9u1p4FyGym-PqK4-12" value="G21" style="rounded=1;whiteSpace=wrap;html=1;fontSize=20;" parent="1" vertex="1">
                    <mxGeometry x="240" y="570" width="120" height="60" as="geometry"/>
                </mxCell>
                <mxCell id="pYcxB9u1p4FyGym-PqK4-21" style="edgeStyle=none;html=1;exitX=1;exitY=0.5;exitDx=0;exitDy=0;" parent="1" source="pYcxB9u1p4FyGym-PqK4-13" edge="1">
                    <mxGeometry relative="1" as="geometry">
                        <mxPoint x="520" y="690" as="targetPoint"/>
                    </mxGeometry>
                </mxCell>
                <mxCell id="pYcxB9u1p4FyGym-PqK4-41" style="edgeStyle=none;html=1;entryX=0;entryY=0.5;entryDx=0;entryDy=0;jumpStyle=arc;" parent="1" target="pYcxB9u1p4FyGym-PqK4-13" edge="1">
                    <mxGeometry relative="1" as="geometry">
                        <mxPoint x="120" y="420" as="sourcePoint"/>
                        <Array as="points">
                            <mxPoint x="120" y="690"/>
                        </Array>
                    </mxGeometry>
                </mxCell>
                <mxCell id="pYcxB9u1p4FyGym-PqK4-13" value="G22" style="rounded=1;whiteSpace=wrap;html=1;fontSize=20;" parent="1" vertex="1">
                    <mxGeometry x="240" y="660" width="120" height="60" as="geometry"/>
                </mxCell>
                <mxCell id="pYcxB9u1p4FyGym-PqK4-22" style="edgeStyle=none;html=1;exitX=1;exitY=0.5;exitDx=0;exitDy=0;" parent="1" source="pYcxB9u1p4FyGym-PqK4-14" edge="1">
                    <mxGeometry relative="1" as="geometry">
                        <mxPoint x="520" y="600" as="targetPoint"/>
                        <Array as="points">
                            <mxPoint x="520" y="780"/>
                        </Array>
                    </mxGeometry>
                </mxCell>
                <mxCell id="pYcxB9u1p4FyGym-PqK4-44" style="edgeStyle=none;html=1;exitX=0;exitY=0.5;exitDx=0;exitDy=0;entryX=0;entryY=0.5;entryDx=0;entryDy=0;jumpStyle=arc;" parent="1" target="pYcxB9u1p4FyGym-PqK4-14" edge="1">
                    <mxGeometry relative="1" as="geometry">
                        <mxPoint x="80" y="510" as="sourcePoint"/>
                        <Array as="points">
                            <mxPoint x="80" y="780"/>
                        </Array>
                    </mxGeometry>
                </mxCell>
                <mxCell id="pYcxB9u1p4FyGym-PqK4-14" value="G23" style="rounded=1;whiteSpace=wrap;html=1;fontSize=20;" parent="1" vertex="1">
                    <mxGeometry x="240" y="750" width="120" height="60" as="geometry"/>
                </mxCell>
                <mxCell id="pYcxB9u1p4FyGym-PqK4-23" style="edgeStyle=none;html=1;exitX=1;exitY=0.5;exitDx=0;exitDy=0;" parent="1" source="pYcxB9u1p4FyGym-PqK4-15" edge="1">
                    <mxGeometry relative="1" as="geometry">
                        <mxPoint x="780" y="870.1764705882354" as="targetPoint"/>
                    </mxGeometry>
                </mxCell>
                <mxCell id="pYcxB9u1p4FyGym-PqK4-38" style="edgeStyle=none;html=1;exitX=0;exitY=0.5;exitDx=0;exitDy=0;entryX=0;entryY=0.5;entryDx=0;entryDy=0;jumpStyle=arc;" parent="1" target="pYcxB9u1p4FyGym-PqK4-15" edge="1">
                    <mxGeometry relative="1" as="geometry">
                        <mxPoint x="160" y="330" as="sourcePoint"/>
                        <Array as="points">
                            <mxPoint x="160" y="870"/>
                        </Array>
                    </mxGeometry>
                </mxCell>
                <mxCell id="pYcxB9u1p4FyGym-PqK4-15" value="G31" style="rounded=1;whiteSpace=wrap;html=1;fontSize=20;" parent="1" vertex="1">
                    <mxGeometry x="240" y="840" width="120" height="60" as="geometry"/>
                </mxCell>
                <mxCell id="pYcxB9u1p4FyGym-PqK4-27" style="edgeStyle=none;html=1;exitX=1;exitY=0.5;exitDx=0;exitDy=0;" parent="1" source="pYcxB9u1p4FyGym-PqK4-16" edge="1">
                    <mxGeometry relative="1" as="geometry">
                        <mxPoint x="520" y="959.5882352941178" as="targetPoint"/>
                    </mxGeometry>
                </mxCell>
                <mxCell id="pYcxB9u1p4FyGym-PqK4-42" style="edgeStyle=none;html=1;exitX=0;exitY=0.5;exitDx=0;exitDy=0;entryX=0;entryY=0.5;entryDx=0;entryDy=0;jumpStyle=arc;" parent="1" target="pYcxB9u1p4FyGym-PqK4-16" edge="1">
                    <mxGeometry relative="1" as="geometry">
                        <mxPoint x="120" y="420" as="sourcePoint"/>
                        <Array as="points">
                            <mxPoint x="120" y="960"/>
                        </Array>
                    </mxGeometry>
                </mxCell>
                <mxCell id="pYcxB9u1p4FyGym-PqK4-16" value="G32" style="rounded=1;whiteSpace=wrap;html=1;fontSize=20;" parent="1" vertex="1">
                    <mxGeometry x="240" y="930" width="120" height="60" as="geometry"/>
                </mxCell>
                <mxCell id="pYcxB9u1p4FyGym-PqK4-25" style="edgeStyle=none;html=1;exitX=1;exitY=0.5;exitDx=0;exitDy=0;" parent="1" source="pYcxB9u1p4FyGym-PqK4-17" edge="1">
                    <mxGeometry relative="1" as="geometry">
                        <mxPoint x="520" y="870" as="targetPoint"/>
                        <Array as="points">
                            <mxPoint x="520" y="1050"/>
                        </Array>
                    </mxGeometry>
                </mxCell>
                <mxCell id="pYcxB9u1p4FyGym-PqK4-45" style="edgeStyle=none;html=1;exitX=0;exitY=0.5;exitDx=0;exitDy=0;entryX=0;entryY=0.5;entryDx=0;entryDy=0;jumpStyle=arc;" parent="1" target="pYcxB9u1p4FyGym-PqK4-17" edge="1">
                    <mxGeometry relative="1" as="geometry">
                        <mxPoint x="80" y="510" as="sourcePoint"/>
                        <Array as="points">
                            <mxPoint x="80" y="1050"/>
                        </Array>
                    </mxGeometry>
                </mxCell>
                <mxCell id="pYcxB9u1p4FyGym-PqK4-17" value="G33" style="rounded=1;whiteSpace=wrap;html=1;fontSize=20;" parent="1" vertex="1">
                    <mxGeometry x="240" y="1020" width="120" height="60" as="geometry"/>
                </mxCell>
                <mxCell id="pYcxB9u1p4FyGym-PqK4-46" value="" style="endArrow=classic;html=1;fontSize=20;" parent="1" edge="1">
                    <mxGeometry width="50" height="50" relative="1" as="geometry">
                        <mxPoint x="590" y="500" as="sourcePoint"/>
                        <mxPoint x="590" y="600" as="targetPoint"/>
                    </mxGeometry>
                </mxCell>
                <mxCell id="pYcxB9u1p4FyGym-PqK4-47" value="Noise2" style="text;html=1;strokeColor=none;fillColor=none;align=center;verticalAlign=middle;whiteSpace=wrap;rounded=0;fontSize=20;" parent="1" vertex="1">
                    <mxGeometry x="523" y="460" width="131" height="30" as="geometry"/>
                </mxCell>
                <mxCell id="pYcxB9u1p4FyGym-PqK4-48" value="" style="endArrow=classic;html=1;fontSize=20;" parent="1" edge="1">
                    <mxGeometry width="50" height="50" relative="1" as="geometry">
                        <mxPoint x="590" y="770" as="sourcePoint"/>
                        <mxPoint x="590" y="870" as="targetPoint"/>
                    </mxGeometry>
                </mxCell>
                <mxCell id="pYcxB9u1p4FyGym-PqK4-49" value="Noise3" style="text;html=1;strokeColor=none;fillColor=none;align=center;verticalAlign=middle;whiteSpace=wrap;rounded=0;fontSize=20;" parent="1" vertex="1">
                    <mxGeometry x="523" y="730" width="131" height="30" as="geometry"/>
                </mxCell>
                <mxCell id="pYcxB9u1p4FyGym-PqK4-50" value="T3.MV2" style="text;html=1;strokeColor=none;fillColor=none;align=center;verticalAlign=middle;whiteSpace=wrap;rounded=0;fontSize=20;" parent="1" vertex="1">
                    <mxGeometry x="-99" y="380" width="170" height="30" as="geometry"/>
                </mxCell>
                <mxCell id="pYcxB9u1p4FyGym-PqK4-51" value="T3.DV1" style="text;html=1;strokeColor=none;fillColor=none;align=center;verticalAlign=middle;whiteSpace=wrap;rounded=0;fontSize=20;" parent="1" vertex="1">
                    <mxGeometry x="-99" y="470" width="170" height="30" as="geometry"/>
                </mxCell>
                <mxCell id="pYcxB9u1p4FyGym-PqK4-52" value="T3.CV2" style="text;html=1;strokeColor=none;fillColor=none;align=center;verticalAlign=middle;whiteSpace=wrap;rounded=0;fontSize=20;" parent="1" vertex="1">
                    <mxGeometry x="690" y="555" width="120" height="30" as="geometry"/>
                </mxCell>
                <mxCell id="pYcxB9u1p4FyGym-PqK4-53" value="T3.CV3" style="text;html=1;strokeColor=none;fillColor=none;align=center;verticalAlign=middle;whiteSpace=wrap;rounded=0;fontSize=20;" parent="1" vertex="1">
                    <mxGeometry x="690" y="820" width="120" height="30" as="geometry"/>
                </mxCell>
                <mxCell id="fR_F9EMNOs4fgO9D35Qj-40" style="edgeStyle=none;jumpStyle=arc;html=1;fontSize=23;entryX=0;entryY=0.25;entryDx=0;entryDy=0;" parent="1" target="fR_F9EMNOs4fgO9D35Qj-2" edge="1">
                    <mxGeometry relative="1" as="geometry">
                        <mxPoint x="-40" y="1298" as="sourcePoint"/>
                    </mxGeometry>
                </mxCell>
                <mxCell id="fR_F9EMNOs4fgO9D35Qj-41" style="edgeStyle=none;jumpStyle=arc;html=1;fontSize=23;entryX=0;entryY=0.5;entryDx=0;entryDy=0;" parent="1" target="fR_F9EMNOs4fgO9D35Qj-2" edge="1">
                    <mxGeometry relative="1" as="geometry">
                        <mxPoint x="-40" y="1345" as="sourcePoint"/>
                    </mxGeometry>
                </mxCell>
                <mxCell id="fR_F9EMNOs4fgO9D35Qj-42" style="edgeStyle=none;jumpStyle=arc;html=1;fontSize=23;entryX=0;entryY=0.75;entryDx=0;entryDy=0;" parent="1" target="fR_F9EMNOs4fgO9D35Qj-2" edge="1">
                    <mxGeometry relative="1" as="geometry">
                        <mxPoint x="-40" y="1393" as="sourcePoint"/>
                    </mxGeometry>
                </mxCell>
                <mxCell id="fR_F9EMNOs4fgO9D35Qj-43" style="edgeStyle=none;jumpStyle=arc;html=1;exitX=1;exitY=0.25;exitDx=0;exitDy=0;fontSize=23;" parent="1" source="fR_F9EMNOs4fgO9D35Qj-2" edge="1">
                    <mxGeometry relative="1" as="geometry">
                        <mxPoint x="600" y="1297" as="targetPoint"/>
                    </mxGeometry>
                </mxCell>
                <mxCell id="fR_F9EMNOs4fgO9D35Qj-44" style="edgeStyle=none;jumpStyle=arc;html=1;exitX=1;exitY=0.5;exitDx=0;exitDy=0;fontSize=23;" parent="1" source="fR_F9EMNOs4fgO9D35Qj-2" edge="1">
                    <mxGeometry relative="1" as="geometry">
                        <mxPoint x="600" y="1345" as="targetPoint"/>
                    </mxGeometry>
                </mxCell>
                <mxCell id="fR_F9EMNOs4fgO9D35Qj-45" style="edgeStyle=none;jumpStyle=arc;html=1;exitX=1;exitY=0.75;exitDx=0;exitDy=0;fontSize=23;" parent="1" source="fR_F9EMNOs4fgO9D35Qj-2" edge="1">
                    <mxGeometry relative="1" as="geometry">
                        <mxPoint x="600" y="1392.5294117647059" as="targetPoint"/>
                    </mxGeometry>
                </mxCell>
                <mxCell id="fR_F9EMNOs4fgO9D35Qj-2" value="&lt;b&gt;&lt;font style=&quot;font-size: 23px;&quot;&gt;Gp&lt;/font&gt;&lt;/b&gt;" style="rounded=1;whiteSpace=wrap;html=1;fontSize=20;" parent="1" vertex="1">
                    <mxGeometry x="150" y="1250" width="210" height="190" as="geometry"/>
                </mxCell>
                <mxCell id="fR_F9EMNOs4fgO9D35Qj-46" style="edgeStyle=none;jumpStyle=arc;html=1;exitX=0.5;exitY=1;exitDx=0;exitDy=0;fontSize=23;" parent="1" source="fR_F9EMNOs4fgO9D35Qj-7" edge="1">
                    <mxGeometry relative="1" as="geometry">
                        <mxPoint x="555" y="1297" as="targetPoint"/>
                    </mxGeometry>
                </mxCell>
                <mxCell id="fR_F9EMNOs4fgO9D35Qj-7" value="Noise1" style="text;html=1;strokeColor=none;fillColor=none;align=center;verticalAlign=middle;whiteSpace=wrap;rounded=0;fontSize=20;" parent="1" vertex="1">
                    <mxGeometry x="490" y="1169" width="131" height="30" as="geometry"/>
                </mxCell>
                <mxCell id="fR_F9EMNOs4fgO9D35Qj-9" value="T3.MV1" style="text;html=1;strokeColor=none;fillColor=none;align=center;verticalAlign=middle;whiteSpace=wrap;rounded=0;fontSize=20;" parent="1" vertex="1">
                    <mxGeometry x="-170" y="1280" width="170" height="30" as="geometry"/>
                </mxCell>
                <mxCell id="fR_F9EMNOs4fgO9D35Qj-10" value="T3.CV1" style="text;html=1;strokeColor=none;fillColor=none;align=center;verticalAlign=middle;whiteSpace=wrap;rounded=0;fontSize=20;" parent="1" vertex="1">
                    <mxGeometry x="600" y="1280" width="120" height="30" as="geometry"/>
                </mxCell>
                <mxCell id="fR_F9EMNOs4fgO9D35Qj-47" style="edgeStyle=none;jumpStyle=arc;html=1;exitX=0.5;exitY=1;exitDx=0;exitDy=0;fontSize=23;" parent="1" source="fR_F9EMNOs4fgO9D35Qj-33" edge="1">
                    <mxGeometry relative="1" as="geometry">
                        <mxPoint x="480" y="1345" as="targetPoint"/>
                    </mxGeometry>
                </mxCell>
                <mxCell id="fR_F9EMNOs4fgO9D35Qj-33" value="Noise2" style="text;html=1;strokeColor=none;fillColor=none;align=center;verticalAlign=middle;whiteSpace=wrap;rounded=0;fontSize=20;" parent="1" vertex="1">
                    <mxGeometry x="414" y="1169" width="131" height="30" as="geometry"/>
                </mxCell>
                <mxCell id="fR_F9EMNOs4fgO9D35Qj-48" style="edgeStyle=none;jumpStyle=arc;html=1;exitX=0.5;exitY=1;exitDx=0;exitDy=0;fontSize=23;" parent="1" source="fR_F9EMNOs4fgO9D35Qj-35" edge="1">
                    <mxGeometry relative="1" as="geometry">
                        <mxPoint x="405" y="1393" as="targetPoint"/>
                    </mxGeometry>
                </mxCell>
                <mxCell id="fR_F9EMNOs4fgO9D35Qj-35" value="Noise3" style="text;html=1;strokeColor=none;fillColor=none;align=center;verticalAlign=middle;whiteSpace=wrap;rounded=0;fontSize=20;" parent="1" vertex="1">
                    <mxGeometry x="340" y="1169" width="131" height="30" as="geometry"/>
                </mxCell>
                <mxCell id="fR_F9EMNOs4fgO9D35Qj-36" value="T3.MV2" style="text;html=1;strokeColor=none;fillColor=none;align=center;verticalAlign=middle;whiteSpace=wrap;rounded=0;fontSize=20;" parent="1" vertex="1">
                    <mxGeometry x="-170" y="1330" width="170" height="30" as="geometry"/>
                </mxCell>
                <mxCell id="fR_F9EMNOs4fgO9D35Qj-37" value="T3.DV1" style="text;html=1;strokeColor=none;fillColor=none;align=center;verticalAlign=middle;whiteSpace=wrap;rounded=0;fontSize=20;" parent="1" vertex="1">
                    <mxGeometry x="-170" y="1380" width="170" height="30" as="geometry"/>
                </mxCell>
                <mxCell id="fR_F9EMNOs4fgO9D35Qj-38" value="T3.CV2" style="text;html=1;strokeColor=none;fillColor=none;align=center;verticalAlign=middle;whiteSpace=wrap;rounded=0;fontSize=20;" parent="1" vertex="1">
                    <mxGeometry x="600" y="1330" width="120" height="30" as="geometry"/>
                </mxCell>
                <mxCell id="fR_F9EMNOs4fgO9D35Qj-39" value="T3.CV3" style="text;html=1;strokeColor=none;fillColor=none;align=center;verticalAlign=middle;whiteSpace=wrap;rounded=0;fontSize=20;" parent="1" vertex="1">
                    <mxGeometry x="600" y="1380" width="120" height="30" as="geometry"/>
                </mxCell>
            </root>
        </mxGraphModel>
    </diagram>
    <diagram id="H9BmEVSdMe_jDplGk4TD" name="第 5 页">
        <mxGraphModel dx="1137" dy="859" grid="1" gridSize="10" guides="1" tooltips="1" connect="1" arrows="1" fold="1" page="1" pageScale="1" pageWidth="827" pageHeight="1169" math="0" shadow="0">
            <root>
                <mxCell id="0"/>
                <mxCell id="1" parent="0"/>
            </root>
        </mxGraphModel>
    </diagram>
</mxfile>